<svg width="25" height="25" viewBox="0 0 25 25" fill="none" xmlns="http://www.w3.org/2000/svg">
<path d="M25 12.5C25 9.18479 23.683 6.00537 21.3388 3.66117C18.9946 1.31696 15.8152 0 12.5 0C9.18479 0 6.00537 1.31696 3.66117 3.66117C1.31696 6.00537 0 9.18479 0 12.5C0 15.8152 1.31696 18.9946 3.66117 21.3388C6.00537 23.683 9.18479 25 12.5 25C15.8152 25 18.9946 23.683 21.3388 21.3388C23.683 18.9946 25 15.8152 25 12.5ZM13.2812 17.9688C13.2812 18.176 13.1989 18.3747 13.0524 18.5212C12.9059 18.6677 12.7072 18.75 12.5 18.75C12.2928 18.75 12.0941 18.6677 11.9476 18.5212C11.8011 18.3747 11.7188 18.176 11.7188 17.9688V8.91719L8.36563 12.2719C8.21893 12.4186 8.01996 12.501 7.8125 12.501C7.60504 12.501 7.40607 12.4186 7.25937 12.2719C7.11268 12.1252 7.03026 11.9262 7.03026 11.7188C7.03026 11.5113 7.11268 11.3123 7.25937 11.1656L11.9469 6.47812C12.0194 6.40537 12.1057 6.34765 12.2006 6.30826C12.2955 6.26888 12.3972 6.2486 12.5 6.2486C12.6028 6.2486 12.7045 6.26888 12.7994 6.30826C12.8943 6.34765 12.9806 6.40537 13.0531 6.47812L17.7406 11.1656C17.8873 11.3123 17.9697 11.5113 17.9697 11.7188C17.9697 11.9262 17.8873 12.1252 17.7406 12.2719C17.5939 12.4186 17.395 12.501 17.1875 12.501C16.98 12.501 16.7811 12.4186 16.6344 12.2719L13.2812 8.91719V17.9688Z" fill="#5D3FD3"/>
</svg>
