<svg width="30" height="30" viewBox="0 0 30 30" fill="none" xmlns="http://www.w3.org/2000/svg">
<g clip-path="url(#clip0)">
<path d="M18.5475 20.8884H11.3677C11.535 20.8884 11.67 22.5342 11.67 24.5616C11.67 26.5903 11.5355 28.2361 11.3677 28.2361H18.5475C18.3806 28.2361 18.2452 26.5903 18.2452 24.5616C18.2461 22.5342 18.3806 20.8884 18.5475 20.8884Z" fill="#BFBEBE"/>
<path d="M13.882 20.8884H11.3681C11.5355 20.8884 11.6705 22.5342 11.6705 24.5616C11.6705 26.5903 11.5359 28.2361 11.3681 28.2361H13.882C14.0494 28.2361 14.1844 26.5903 14.1844 24.5616C14.1844 22.5342 14.0494 20.8884 13.882 20.8884Z" fill="#AEAEAE"/>
<path d="M29.8987 20.8462C29.8987 22.7433 28.4691 24.2803 26.7084 24.2803H3.21C1.4475 24.2803 0.01828 22.7433 0.01828 20.8462V3.44624C0.01828 1.55249 1.4475 0.0145264 3.21 0.0145264H26.7084C28.4691 0.0145264 29.8987 1.55109 29.8987 3.44624V20.8462Z" fill="#D1D2D2"/>
<path d="M6.06094 20.8462V3.44624C6.06094 1.55249 7.49016 0.0145264 9.25219 0.0145264H3.20813C1.44563 0.0145264 0.0164108 1.55109 0.0164108 3.44624V20.8462C0.0164108 22.7433 1.44563 24.2803 3.20813 24.2803H9.25219C7.49016 24.2803 6.06094 22.7428 6.06094 20.8458" fill="#C6C5C5"/>
<path d="M29.8981 15.9858C29.8981 17.8795 28.4684 19.417 26.7078 19.417H3.20934C1.44684 19.417 0.0176239 17.8809 0.0176239 15.9858V3.43359C0.0176239 1.53656 1.44684 0 3.20934 0H26.7078C28.4684 0 29.8981 1.53656 29.8981 3.43359V15.9858Z" fill="#243438"/>
<path d="M0.0168762 15.0994H29.8992V20.4276H0.0168762V15.0994Z" fill="#243438"/>
<path d="M27.5391 1.59656H2.37609C2.16844 1.59656 1.99547 1.7114 1.99547 1.84968V18.2048C1.99547 18.3436 2.16844 18.458 2.37609 18.458H27.5391C27.652 18.458 27.7378 18.4341 27.8002 18.3919L27.8095 18.3825C27.8095 18.3825 27.817 18.3769 27.8189 18.3717C27.8496 18.3558 27.8755 18.3319 27.8939 18.3025C27.9123 18.2732 27.9225 18.2395 27.9234 18.2048V7.80797V1.85296C27.9216 1.71468 27.7467 1.59984 27.5391 1.59984" fill="#58C5E8"/>
<path d="M15.3272 12.5255C19.5347 15.0464 23.6452 16.763 27.9216 17.8012V1.84968C27.9216 1.7114 27.7467 1.59656 27.5391 1.59656H4.44844C6.82032 6.06609 10.9022 9.87468 15.3281 12.5255" fill="#28A6DE"/>
<path d="M15.3609 15.2026C10.2844 12.4374 5.20172 8.60725 1.99547 3.87756V18.2044C1.99547 18.3432 2.16844 18.4576 2.37609 18.4576H22.9134C20.4047 17.649 17.903 16.5891 15.3619 15.2044" fill="#28A6DE"/>
<path d="M20.4942 29.4034C20.4942 29.7324 20.3358 30.0001 20.1413 30.0001H9.77719C9.58079 30.0001 9.42235 29.7324 9.42235 29.4034C9.42235 29.0738 9.58079 28.8066 9.77719 28.8066H20.1413C20.3358 28.8052 20.4942 29.0734 20.4942 29.4034Z" fill="#D1D2D2"/>
<path d="M13.0955 29.4034C13.0955 29.0738 13.2539 28.8066 13.4484 28.8066H9.63985C9.44485 28.8066 9.28688 29.0738 9.28688 29.4034C9.28688 29.7324 9.44532 30.0001 9.63985 30.0001H13.4484C13.2539 30.0001 13.0955 29.7324 13.0955 29.4034Z" fill="#C6C5C5"/>
<path d="M16.0922 21.457C16.0462 21.413 15.9792 21.4003 15.8878 21.4265L15.3614 21.5611C15.1973 21.6056 15.1144 21.7139 15.1144 21.8883L15.1125 22.4512C15.1125 22.5328 15.1308 22.5933 15.1673 22.628C15.1828 22.6428 15.2011 22.6543 15.2212 22.6618C15.2413 22.6693 15.2627 22.6726 15.2841 22.6716C15.3122 22.6716 15.3384 22.6655 15.3722 22.6589L15.8981 22.5248C16.0622 22.4808 16.1456 22.372 16.1475 22.1953V21.6342C16.1461 21.5512 16.1278 21.4917 16.0922 21.457ZM15.8128 22.0978C15.8128 22.1601 15.7837 22.1986 15.7242 22.215L15.5377 22.2637C15.5274 22.2658 15.5171 22.267 15.5067 22.2675C15.4914 22.2678 15.4764 22.2627 15.4645 22.253C15.4523 22.2412 15.4444 22.2192 15.4467 22.1873V21.9872C15.4467 21.9248 15.4758 21.8864 15.5344 21.8705L15.7233 21.8217C15.7556 21.8142 15.78 21.818 15.7941 21.8325C15.8081 21.8451 15.8142 21.8662 15.8142 21.8962V22.0983H15.8128V22.0978Z" fill="#243438"/>
<path d="M14.8031 21.8868C14.8031 21.7125 14.7211 21.6037 14.5556 21.5597L14.0297 21.4251C13.9387 21.3989 13.8712 21.4129 13.8277 21.4556C13.7892 21.4903 13.7709 21.5498 13.7709 21.6323L13.7728 22.1925C13.7747 22.3692 13.8567 22.4784 14.0203 22.522L14.5481 22.6565C14.5791 22.6659 14.6081 22.6692 14.6334 22.6692C14.6549 22.6703 14.6763 22.667 14.6964 22.6594C14.7165 22.6519 14.7348 22.6402 14.7502 22.6251C14.7867 22.5909 14.805 22.5309 14.805 22.4484L14.8031 21.8868ZM14.4534 22.2515C14.4441 22.2614 14.43 22.2661 14.4117 22.2661C14.4117 22.2661 14.3916 22.2642 14.3808 22.2623L14.1933 22.2136C14.1352 22.1972 14.1042 22.1587 14.1042 22.0964V21.8943C14.1042 21.8653 14.1117 21.8437 14.1239 21.8306C14.1384 21.8161 14.1623 21.8123 14.1966 21.8198L14.3841 21.8686C14.4422 21.8845 14.4731 21.9229 14.4731 21.9853V22.1873C14.4731 22.2164 14.4731 22.2384 14.4534 22.2515Z" fill="#243438"/>
<path d="M15.173 23.3301C15.1823 23.3301 15.1913 23.3282 15.2039 23.324L15.3914 23.2757C15.4495 23.2621 15.4805 23.2218 15.4805 23.1576V22.9579C15.4812 22.935 15.4748 22.9124 15.4622 22.8932C15.4458 22.8773 15.42 22.8754 15.3895 22.8834L15.2002 22.9317C15.142 22.9462 15.1125 22.986 15.1125 23.0498L15.1106 23.2509C15.1106 23.2799 15.1181 23.2996 15.1308 23.3123C15.1402 23.3245 15.1547 23.3301 15.173 23.3301Z" fill="#243438"/>
<path d="M14.745 23.3301C14.7338 23.33 14.7227 23.3279 14.7122 23.324L14.5247 23.2757C14.4666 23.2621 14.437 23.2218 14.437 23.1576L14.4352 22.9579C14.4352 22.9284 14.4426 22.9087 14.4553 22.8932C14.4698 22.8773 14.4952 22.8754 14.5261 22.8834L14.7173 22.9317C14.7741 22.9462 14.805 22.986 14.805 23.0498V23.2509C14.805 23.2799 14.7975 23.2996 14.7867 23.3123C14.7815 23.3181 14.775 23.3228 14.7678 23.3258C14.7606 23.3289 14.7528 23.3304 14.745 23.3301Z" fill="#243438"/>
</g>
<defs>
<clipPath id="clip0">
<rect width="30" height="30" fill="white"/>
</clipPath>
</defs>
</svg>
