<svg width="24" height="25" viewBox="0 0 24 25" fill="none" xmlns="http://www.w3.org/2000/svg">
<path d="M20 0H4C1.73333 0 0 1.80556 0 4.16667V20.8333C0 23.1944 1.73333 25 4 25H20C22.2667 25 24 23.1944 24 20.8333V4.16667C24 1.80556 22.2667 0 20 0ZM12 8.33333C14.2667 8.33333 16 10.1389 16 12.5C16 14.8611 14.2667 16.6667 12 16.6667C9.73333 16.6667 8 14.8611 8 12.5C8 10.1389 9.73333 8.33333 12 8.33333ZM17.0667 5.55556C17.0667 4.58333 17.8667 3.88889 18.6667 3.88889C19.4667 3.88889 20.2667 4.72222 20.2667 5.55556C20.2667 6.38889 19.6 7.22222 18.6667 7.22222C17.7333 7.22222 17.0667 6.52778 17.0667 5.55556ZM20 22.2222H4C3.2 22.2222 2.66667 21.6667 2.66667 20.8333V12.5H5.33333C5.33333 16.3889 8.26667 19.4444 12 19.4444C15.7333 19.4444 18.6667 16.3889 18.6667 12.5H21.3333V20.8333C21.3333 21.6667 20.8 22.2222 20 22.2222Z" fill="white"/>
</svg>
