<svg width="439" height="263" viewBox="0 0 439 263" fill="none" xmlns="http://www.w3.org/2000/svg">
<path d="M6.50288 133.245C-16.0107 68.2801 32.2349 0.5 100.99 0.5H257.53C262.503 0.5 267.469 0.870953 272.387 1.60977L336.95 11.3094C359.32 14.6702 379.89 25.5163 395.3 42.0766L417.76 66.2127C447.447 98.1146 444.884 148.244 412.098 176.951L381.392 203.839C375.45 209.041 373.389 217.399 376.229 224.768C383.433 243.457 360.337 258.971 345.76 245.235L339.989 239.797C332.977 233.19 322.326 232.317 314.332 237.695L287.86 255.503C278.377 261.883 266.681 264.064 255.536 261.531C252.521 260.846 249.44 260.5 246.349 260.5H240.484C230.341 260.5 220.378 257.824 211.6 252.742C196.091 243.763 177.289 242.508 160.724 249.344L146.985 255.014C100.322 274.272 47.0706 250.306 30.5411 202.609L6.50288 133.245Z" fill="#C3B1E1" fill-opacity="0.49"/>
</svg>
