<svg width="25" height="25" viewBox="0 0 25 25" fill="none" xmlns="http://www.w3.org/2000/svg">
<path d="M12.5 2.41935C18.0712 2.41935 22.5806 6.92797 22.5806 12.5C22.5806 18.0712 18.072 22.5806 12.5 22.5806C6.92883 22.5806 2.41935 18.072 2.41935 12.5C2.41935 6.92883 6.92797 2.41935 12.5 2.41935ZM12.5 0C5.59642 0 0 5.59642 0 12.5C0 19.4036 5.59642 25 12.5 25C19.4036 25 25 19.4036 25 12.5C25 5.59642 19.4036 0 12.5 0ZM12.5 8.46774C10.273 8.46774 8.46774 10.273 8.46774 12.5C8.46774 14.727 10.273 16.5323 12.5 16.5323C14.727 16.5323 16.5323 14.727 16.5323 12.5C16.5323 10.273 14.727 8.46774 12.5 8.46774Z" fill="#C4C4C4"/>
</svg>
