<svg width="30" height="30" viewBox="0 0 30 30" fill="none" xmlns="http://www.w3.org/2000/svg">
<path d="M29.5175 0.570083C29.4278 0.353075 29.2554 0.178014 29.0361 0.0813188C28.8169 -0.0153761 28.5677 -0.0262598 28.3405 0.0509318C28.1132 0.128123 27.9253 0.287447 27.8159 0.495758C27.7065 0.704069 27.684 0.945328 27.753 1.16935C29.1897 5.17945 26.3381 8.17427 24.1638 9.77831L23.2855 8.55575C22.9901 8.14573 22.3298 7.8048 21.8164 7.79879L16.8864 7.81981C16.2842 7.83748 15.6981 8.01288 15.19 8.32746L0.663031 18.2206C0.325132 18.4515 0.0952187 18.8031 0.0236295 19.1983C-0.0479597 19.5935 0.0446089 20.0002 0.281067 20.3292L6.88269 29.5029C7.37754 30.1863 8.16776 30.1037 8.87292 29.6261L23.3999 19.7315C23.8174 19.4446 24.2999 18.8258 24.47 18.3527L26.0133 13.6292C26.1834 13.1576 26.0798 12.4382 25.7845 12.0282L25.2494 11.2832C28.169 9.10996 31.2 5.26957 29.5175 0.570083ZM22.7581 14.625C22.4905 14.8069 22.1886 14.9359 21.8697 15.0044C21.5507 15.073 21.221 15.0799 20.8993 15.0247C20.5776 14.9694 20.2703 14.8532 19.9949 14.6825C19.7194 14.5119 19.4814 14.2903 19.2942 14.0302C18.9152 13.504 18.7667 12.8533 18.8812 12.2209C18.9957 11.5884 19.3639 11.026 19.905 10.6569C20.3292 10.3683 20.8357 10.2156 21.3536 10.2202C21.8715 10.2247 22.375 10.3864 22.7937 10.6825C22.3731 10.9288 22.0839 11.073 22.0298 11.0955C21.8381 11.1843 21.6831 11.3336 21.5903 11.5191C21.4974 11.7046 21.4722 11.9153 21.5188 12.1165C21.5653 12.3178 21.6809 12.4977 21.8465 12.6268C22.0121 12.7559 22.2179 12.8266 22.4303 12.8272C22.5633 12.8272 22.6994 12.7972 22.8277 12.7386C23.1277 12.6004 23.4494 12.4367 23.785 12.2429C23.8621 12.6936 23.8067 13.1563 23.6251 13.5777C23.4434 13.9991 23.1429 14.3621 22.7581 14.625Z" fill="#5D3FD3"/>
</svg>
