<svg width="25" height="25" viewBox="0 0 25 25" fill="none" xmlns="http://www.w3.org/2000/svg">
<path d="M15.9425 9.21051C17.15 9.21051 18.13 10.2421 18.13 11.5131V15.7895H18.125V17.1052H6.875V13.1579H6.8775V11.5131C6.8775 10.2421 7.85625 9.21051 9.065 9.21051H15.9425Z" fill="#5D3FD3"/>
<path d="M25 11.5131C25 10.9024 24.7695 10.3168 24.3593 9.88493C23.9491 9.45311 23.3927 9.21051 22.8125 9.21051H18.5938C19.085 9.83551 19.38 10.6381 19.38 11.5131V13.1579H19.375V17.1052H24.0625C24.3111 17.1052 24.5496 17.0013 24.7254 16.8162C24.9012 16.6311 25 16.3801 25 16.1184V11.5131Z" fill="#5D3FD3"/>
<path d="M5.625 15.7895H5.6275V11.5131L5.63875 11.2237C5.695 10.4605 5.97625 9.76577 6.41375 9.21051H2.1875L2.0075 9.2184C1.46037 9.26596 0.950236 9.52832 0.57835 9.95342C0.206464 10.3785 2.05057e-05 10.9353 0 11.5131V16.1184C0 16.6631 0.42 17.1052 0.9375 17.1052H5.625V15.7895Z" fill="#5D3FD3"/>
<path d="M12.5 0C13.4946 0 14.4484 0.415882 15.1517 1.15616C15.8549 1.89643 16.25 2.90046 16.25 3.94737C16.25 4.99428 15.8549 5.99831 15.1517 6.73858C14.4484 7.47886 13.4946 7.89474 12.5 7.89474C11.5054 7.89474 10.5516 7.47886 9.84835 6.73858C9.14509 5.99831 8.75 4.99428 8.75 3.94737C8.75 2.90046 9.14509 1.89643 9.84835 1.15616C10.5516 0.415882 11.5054 0 12.5 0Z" fill="#5D3FD3"/>
<path d="M20.625 1.3158C21.4538 1.3158 22.2487 1.66236 22.8347 2.27926C23.4208 2.89616 23.75 3.73285 23.75 4.60527C23.75 5.47769 23.4208 6.31438 22.8347 6.93128C22.2487 7.54817 21.4538 7.89474 20.625 7.89474C19.7962 7.89474 19.0013 7.54817 18.4153 6.93128C17.8292 6.31438 17.5 5.47769 17.5 4.60527C17.5 3.73285 17.8292 2.89616 18.4153 2.27926C19.0013 1.66236 19.7962 1.3158 20.625 1.3158Z" fill="#5D3FD3"/>
<path d="M4.375 1.3158C5.2038 1.3158 5.99866 1.66236 6.58471 2.27926C7.17076 2.89616 7.5 3.73285 7.5 4.60527C7.5 5.47769 7.17076 6.31438 6.58471 6.93128C5.99866 7.54817 5.2038 7.89474 4.375 7.89474C3.5462 7.89474 2.75134 7.54817 2.16529 6.93128C1.57924 6.31438 1.25 5.47769 1.25 4.60527C1.25 3.73285 1.57924 2.89616 2.16529 2.27926C2.75134 1.66236 3.5462 1.3158 4.375 1.3158Z" fill="#5D3FD3"/>
<path d="M0 19.4079C0 19.1462 0.0987719 18.8952 0.274587 18.7101C0.450403 18.5251 0.68886 18.4211 0.9375 18.4211H24.0625C24.3111 18.4211 24.5496 18.5251 24.7254 18.7101C24.9012 18.8952 25 19.1462 25 19.4079V20.0658C25 21.3745 24.5061 22.6295 23.6271 23.5548C22.748 24.4802 21.5557 25 20.3125 25H4.6875C3.4443 25 2.25201 24.4802 1.37294 23.5548C0.49386 22.6295 0 21.3745 0 20.0658V19.4079Z" fill="#5D3FD3"/>
</svg>
