<svg width="18" height="18" viewBox="0 0 18 18" fill="none" xmlns="http://www.w3.org/2000/svg">
<path d="M18.8812 17.5898L12.7945 11.5031C13.739 10.282 14.2499 8.78903 14.2499 7.21872C14.2499 5.33904 13.5163 3.57655 12.1898 2.24765C10.8632 0.918747 9.09606 0.1875 7.21872 0.1875C5.34138 0.1875 3.5742 0.92109 2.24765 2.24765C0.918747 3.5742 0.1875 5.33904 0.1875 7.21872C0.1875 9.09606 0.92109 10.8632 2.24765 12.1898C3.5742 13.5187 5.33904 14.2499 7.21872 14.2499C8.78903 14.2499 10.2796 13.739 11.5007 12.7968L17.5874 18.8812C17.6053 18.899 17.6265 18.9132 17.6498 18.9229C17.6731 18.9325 17.6981 18.9375 17.7234 18.9375C17.7486 18.9375 17.7736 18.9325 17.7969 18.9229C17.8203 18.9132 17.8414 18.899 17.8593 18.8812L18.8812 17.8616C18.899 17.8438 18.9132 17.8226 18.9229 17.7993C18.9325 17.776 18.9375 17.751 18.9375 17.7257C18.9375 17.7005 18.9325 17.6755 18.9229 17.6521C18.9132 17.6288 18.899 17.6076 18.8812 17.5898ZM10.9312 10.9312C9.93746 11.9226 8.62028 12.4687 7.21872 12.4687C5.81716 12.4687 4.49998 11.9226 3.50624 10.9312C2.51483 9.93746 1.96874 8.62028 1.96874 7.21872C1.96874 5.81716 2.51483 4.49764 3.50624 3.50624C4.49998 2.51483 5.81716 1.96874 7.21872 1.96874C8.62028 1.96874 9.9398 2.51249 10.9312 3.50624C11.9226 4.49998 12.4687 5.81716 12.4687 7.21872C12.4687 8.62028 11.9226 9.9398 10.9312 10.9312Z" fill="black"/>
</svg>
