<svg width="20" height="10" viewBox="0 0 20 10" fill="none" xmlns="http://www.w3.org/2000/svg">
<path d="M0 9.28571C0 9.09627 0.0877975 8.91459 0.244078 8.78064C0.400358 8.64668 0.61232 8.57143 0.833333 8.57143H5.83333C6.05435 8.57143 6.26631 8.64668 6.42259 8.78064C6.57887 8.91459 6.66667 9.09627 6.66667 9.28571C6.66667 9.47515 6.57887 9.65684 6.42259 9.79079C6.26631 9.92475 6.05435 10 5.83333 10H0.833333C0.61232 10 0.400358 9.92475 0.244078 9.79079C0.0877975 9.65684 0 9.47515 0 9.28571ZM0 5C0 4.81056 0.0877975 4.62888 0.244078 4.49492C0.400358 4.36097 0.61232 4.28571 0.833333 4.28571H12.5C12.721 4.28571 12.933 4.36097 13.0893 4.49492C13.2455 4.62888 13.3333 4.81056 13.3333 5C13.3333 5.18944 13.2455 5.37112 13.0893 5.50508C12.933 5.63903 12.721 5.71429 12.5 5.71429H0.833333C0.61232 5.71429 0.400358 5.63903 0.244078 5.50508C0.0877975 5.37112 0 5.18944 0 5ZM0 0.714286C0 0.524845 0.0877975 0.343164 0.244078 0.20921C0.400358 0.075255 0.61232 0 0.833333 0H19.1667C19.3877 0 19.5996 0.075255 19.7559 0.20921C19.9122 0.343164 20 0.524845 20 0.714286C20 0.903726 19.9122 1.08541 19.7559 1.21936C19.5996 1.35332 19.3877 1.42857 19.1667 1.42857H0.833333C0.61232 1.42857 0.400358 1.35332 0.244078 1.21936C0.0877975 1.08541 0 0.903726 0 0.714286Z" fill="#5D3FD3"/>
</svg>
