<svg width="24" height="20" viewBox="0 0 24 20" fill="none" xmlns="http://www.w3.org/2000/svg">
<path d="M24 2.36768C23.1014 2.77591 22.1482 3.04374 21.1722 3.16224C22.2002 2.53145 22.9695 1.53887 23.3368 0.369473C22.3704 0.957734 21.313 1.37197 20.2103 1.59422C19.7496 1.09033 19.1929 0.688831 18.5747 0.414601C17.9565 0.140372 17.29 -0.000742813 16.6164 2.94046e-06C13.8973 2.94046e-06 11.6925 2.26029 11.6925 5.04922C11.6925 5.44458 11.7362 5.83035 11.8203 6.20014C7.72801 5.98952 4.1001 3.97916 1.67152 0.923999C1.23364 1.6946 1.00354 2.57079 1.00484 3.46267C1.0042 4.29398 1.20381 5.11259 1.58595 5.84574C1.96809 6.5789 2.52091 7.20391 3.1953 7.66524C2.41353 7.63977 1.64898 7.42325 0.965261 7.03369C0.964638 7.05478 0.964638 7.07555 0.964638 7.09729C0.964638 9.54295 2.66171 11.5837 4.91389 12.0481C4.18869 12.2494 3.42835 12.2789 2.69039 12.1344C3.31686 14.1399 5.13518 15.6002 7.28979 15.6411C5.54563 17.0447 3.39182 17.8061 1.17471 17.8027C0.77732 17.8027 0.385543 17.779 0 17.732C2.25134 19.2154 4.87154 20.0027 7.54755 20C16.6042 20 21.5568 12.3066 21.5568 5.63507C21.5568 5.41645 21.5518 5.19816 21.5424 4.98114C22.5069 4.2671 23.3392 3.38203 24 2.36768Z" fill="white"/>
</svg>
