<svg width="34" height="25" viewBox="0 0 34 25" fill="none" xmlns="http://www.w3.org/2000/svg">
<path d="M33.6909 6.42857C33.3818 3.75 33.0727 1.78571 32.1455 1.07143C31.2182 0.178571 23.1818 0 17 0C10.8182 0 2.78182 0.178571 1.85455 1.07143C0.927273 1.78571 0.618182 3.75 0.309091 6.42857C6.90872e-08 9.10714 0 10.7143 0 12.5C0 14.2857 6.90872e-08 15.8929 0.309091 18.5714C0.618182 21.25 0.927273 23.2143 1.85455 23.9286C2.78182 24.8214 10.8182 25 17 25C23.1818 25 31.2182 24.8214 32.1455 23.9286C33.0727 23.2143 33.3818 21.25 33.6909 18.5714C34 15.8929 34 14.2857 34 12.5C34 10.7143 34 9.10714 33.6909 6.42857ZM13.9091 18.9286V6.07143L23.1818 12.5L13.9091 18.9286Z" fill="white"/>
</svg>
